<?xml version="1.0" encoding="UTF-8"?>
<svg id="_레이어_1" data-name="레이어 1" xmlns="http://www.w3.org/2000/svg" width="512" height="512" viewBox="0 0 512 512">
  <path d="M488.87,250.21l-34.26-52.75.17-62.9-56.05-28.56-31.31-54.56-62.82,3.29-54.39-31.59-52.75,34.26-62.9-.17-28.56,56.05-54.56,31.31,3.29,62.82-31.59,54.39,34.26,52.75-.17,62.9,56.05,28.56,31.31,54.56,62.82-3.29,54.39,31.59,52.75-34.26,62.9.17,28.56-56.05,54.56-31.31-3.29-62.82,31.59-54.39ZM233.67,207.11l-36.54,22.33,22.33,36.54c2.74,4.48,1.32,10.32-3.15,13.06-1.55.94-3.26,1.39-4.94,1.39-3.2,0-6.32-1.62-8.12-4.55l-22.33-36.54-36.54,22.33c-1.55.95-3.26,1.39-4.94,1.39-3.2,0-6.32-1.62-8.12-4.55-2.74-4.48-1.32-10.32,3.15-13.06l36.54-22.33-22.33-36.54c-2.74-4.48-1.32-10.32,3.15-13.06,4.48-2.73,10.32-1.32,13.06,3.15l22.33,36.54,36.54-22.33c4.48-2.74,10.32-1.32,13.06,3.15,2.74,4.48,1.32,10.32-3.15,13.06ZM383.17,243.21l-36.54,22.33,22.33,36.54c2.74,4.48,1.32,10.32-3.15,13.06-1.55.95-3.26,1.39-4.94,1.39-3.2,0-6.32-1.62-8.12-4.55l-22.33-36.54-36.54,22.33c-1.55.95-3.26,1.39-4.94,1.39-3.2,0-6.32-1.62-8.12-4.55-2.74-4.48-1.32-10.32,3.15-13.06l36.54-22.33-22.33-36.54c-2.74-4.48-1.32-10.32,3.15-13.06,4.48-2.73,10.32-1.32,13.06,3.15l22.33,36.54,36.54-22.33c4.48-2.73,10.32-1.32,13.06,3.15s1.32,10.32-3.15,13.06Z"/>
</svg>