<?xml version="1.0" encoding="UTF-8"?>
<svg id="_레이어_1" data-name="레이어 1" xmlns="http://www.w3.org/2000/svg" width="512" height="512" viewBox="0 0 512 512">
  <path d="M481,195.71l-45.69-43.24-14.6-61.18-61.18-14.6-43.24-45.68-60.29,17.94-60.29-17.94-43.24,45.68-61.18,14.6-14.6,61.18-45.69,43.24,17.94,60.29-17.94,60.29,45.69,43.24,14.6,61.18,61.18,14.6,43.24,45.69,60.29-17.94,60.29,17.94,43.24-45.69,61.18-14.6,14.6-61.18,45.69-43.24-17.94-60.29,17.94-60.29ZM179.1,291.39c-20.94,0-37.91-21.22-37.91-47.39s16.97-47.39,37.91-47.39,37.91,21.22,37.91,47.39-16.97,47.39-37.91,47.39ZM388.21,235.35c-.88,5.17-5.78,8.65-10.95,7.78-18.8-3.19-47.08,7.05-61.83,29.69-1.82,2.79-4.86,4.31-7.97,4.31-1.78,0-3.58-.5-5.18-1.54-4.4-2.86-5.64-8.75-2.77-13.15,19.72-30.27,56.41-42.19,80.92-38.05,5.17.88,8.66,5.78,7.78,10.95Z"/>
</svg>