<?xml version="1.0" encoding="UTF-8"?>
<svg id="_레이어_1" data-name="레이어 1" xmlns="http://www.w3.org/2000/svg" width="512" height="512" viewBox="0 0 512 512">
  <path d="M481,195.71l-45.69-43.24-14.6-61.18-61.18-14.6-43.24-45.68-60.29,17.94-60.29-17.94-43.24,45.68-61.18,14.6-14.6,61.18-45.69,43.24,17.94,60.29-17.94,60.29,45.69,43.24,14.6,61.18,61.18,14.6,43.24,45.69,60.29-17.94,60.29,17.94,43.24-45.69,61.18-14.6,14.6-61.18,45.69-43.24-17.94-60.29,17.94-60.29ZM207.97,326.99c-11.57,11.99-26.31,18.57-41.57,18.57-.23,0-.47,0-.7,0-15.62-.21-30.58-7.27-42.13-19.9-3.54-3.87-3.28-9.88.6-13.42,3.87-3.54,9.88-3.27,13.42.6,7.97,8.72,18.05,13.59,28.36,13.73,10.21.16,20.28-4.4,28.35-12.76,3.64-3.78,9.66-3.88,13.43-.24,3.78,3.64,3.88,9.66.24,13.43ZM367.28,326.99c-11.57,11.99-26.31,18.57-41.57,18.57-.23,0-.47,0-.7,0-15.62-.21-30.58-7.27-42.13-19.9-3.54-3.87-3.28-9.88.6-13.42,3.87-3.54,9.88-3.27,13.42.6,7.97,8.72,18.05,13.59,28.36,13.73.15,0,.3,0,.44,0,10.06,0,19.96-4.52,27.91-12.76,3.64-3.78,9.66-3.88,13.43-.24,3.78,3.64,3.88,9.66.24,13.43Z"/>
</svg>