<?xml version="1.0" encoding="UTF-8"?>
<svg id="_레이어_1" data-name="레이어 1" xmlns="http://www.w3.org/2000/svg" width="1940" height="512" viewBox="0 0 1940 512">
  <defs>
    <style>
      .cls-1 {
        fill: #69f;
      }
    </style>
  </defs>
  <g>
    <path class="cls-1" d="M136.16,93.04h132.7c80.38,0,128.9,45.66,128.9,119.38s-48.51,119.38-128.9,119.38h-50.89v83.44h-81.81V93.04ZM260.3,264.27c34.72,0,55.17-19.02,55.17-50.89s-20.45-50.89-55.17-50.89h-43.76v101.78h43.76Z"/>
    <path class="cls-1" d="M425.51,93.04h79.17v322.21h-79.17V93.04Z"/>
    <path class="cls-1" d="M533.65,254.15c0-93.9,64.44-167.09,164.33-167.09,52.47,0,98.5,21.17,136.25,63.98l-48.33,50.63c-21.63-27.16-50.63-42.35-82.85-42.35-52.93,0-88.38,39.12-88.38,94.82s35.44,94.82,89.76,94.82c36.36,0,65.82-16.11,88.38-44.65l48.33,50.63c-35.9,46.03-87.92,66.28-141.77,66.28-100.34,0-165.71-70.89-165.71-167.09Z"/>
    <path class="cls-1" d="M968.86,287.75h-25.32v127.5h-79.17V93.04h79.17v124.28h25.32l75.95-124.28h92.06l-100.34,157.88,104.03,164.33h-92.98l-78.71-127.5Z"/>
    <path class="cls-1" d="M1252.86,296.03l-115.99-202.99h90.22l36.36,66.74,29.46,57.54,30.84-57.54,36.82-66.74h87.46l-115.99,202.99v119.22h-79.17v-119.22Z"/>
  </g>
  <g>
    <path class="cls-1" d="M1595.72,422.77l-118.98-159.6c-16.5-22.14-11.94-53.47,10.2-69.97,22.14-16.51,53.47-11.94,69.97,10.2l62.48,83.8,192.38-127.28c23.03-15.24,54.05-8.92,69.29,14.11,15.24,23.03,8.92,54.05-14.11,69.29l-271.23,179.44Z"/>
    <g>
      <ellipse class="cls-1" cx="1607.56" cy="125.48" rx="40" ry="50"/>
      <ellipse class="cls-1" cx="1722.64" cy="125.48" rx="40" ry="50"/>
    </g>
  </g>
</svg>
