<svg viewBox="0 0 1940 512" xmlns="http://www.w3.org/2000/svg">
  <g fill="#6699FF">
    <path d="M136.16,94.9h132.7c80.38,0,128.9,45.66,128.9,119.38s-48.51,119.38-128.9,119.38h-50.89v83.44h-81.81V94.9ZM260.3,266.12c34.72,0,55.17-19.02,55.17-50.89s-20.45-50.89-55.17-50.89h-43.76v101.78h43.76Z"/>
    <path d="M425.51,94.9h79.17v322.21h-79.17V94.9Z"/>
    <path d="M533.65,256c0-93.9,64.44-167.09,164.33-167.09,52.47,0,98.5,21.17,136.25,63.98l-48.33,50.63c-21.63-27.16-50.63-42.35-82.85-42.35-52.93,0-88.38,39.12-88.38,94.82s35.44,94.82,89.76,94.82c36.36,0,65.82-16.11,88.38-44.65l48.33,50.63c-35.9,46.03-87.92,66.28-141.77,66.28-100.34,0-165.71-70.89-165.71-167.09Z"/>
    <path d="M968.86,289.6h-25.32v127.5h-79.17V94.9h79.17v124.28h25.32l75.95-124.28h92.06l-100.34,157.88,104.03,164.33h-92.98l-78.71-127.5Z"/>
    <path d="M1252.86,297.89l-115.99-202.99h90.22l36.36,66.74,29.46,57.54,30.84-57.54,36.82-66.74h87.46l-115.99,202.99v119.22h-79.17v-119.22Z"/>
    <path d="M1873.96,187.45c-12.19-18.42-37.01-23.48-55.43-11.29l-200.27,132.5-68.13-91.38c-13.2-17.71-38.26-21.36-55.98-8.16s-21.37,38.27-8.16,55.98l113.33,152.02,263.34-174.23c18.42-12.19,23.48-37.01,11.29-55.43Z"/>
    <ellipse cx="1603.03" cy="154.08" rx="40" ry="50"/>
    <ellipse cx="1711.47" cy="154.08" rx="40" ry="50"/>
  </g>
</svg>
